<svg width="80" height="80" viewBox="0 0 80 80" fill="none" xmlns="http://www.w3.org/2000/svg">
<path opacity="0.5" d="M24 36C24 33.7909 22.2091 24 20 24C17.7909 24 16 33.7909 16 36V64C16 66.2091 17.7909 68 20 68C22.2091 68 24 66.2091 24 64V36Z" fill="#307D5E"/>
<path opacity="0.5" d="M64 36C64 33.7909 62.2091 24 60 24C57.7909 24 56 33.7909 56 36V64C56 66.2091 57.7909 68 60 68C62.2091 68 64 66.2091 64 64V36Z" fill="#307D5E"/>
<circle cx="40" cy="34" r="25.25" fill="#307D5E" stroke="white" stroke-width="2.5"/>
<g opacity="0.6">
<g clip-path="url(#clip0)">
<path d="M54.1584 41.5373C53.6723 42.377 52.5867 42.6697 51.7336 42.1912C50.8806 41.7127 50.5832 40.644 51.0693 39.8044C52.1285 37.975 52.6932 35.9046 52.6932 33.7493C52.6932 26.9841 47.1217 21.4998 40.2488 21.4998C33.3759 21.4998 27.8043 26.9841 27.8043 33.7493C27.8043 35.883 28.3577 37.9336 29.3968 39.7498C29.8786 40.5919 29.5756 41.659 28.7201 42.1332C27.8646 42.6075 26.7805 42.3092 26.2987 41.4671C24.9617 39.13 24.2488 36.4886 24.2488 33.7493C24.2488 25.0512 31.4122 18 40.2488 18C49.0853 18 56.2488 25.0512 56.2488 33.7493C56.2488 36.5164 55.5213 39.1833 54.1584 41.5373Z" fill="white"/>
</g>
</g>
<defs>
<clipPath id="clip0">
<rect x="56" y="18" width="32" height="32" transform="rotate(90 56 18)" fill="white"/>
</clipPath>
</defs>
</svg>
